<?xml version="1.0" encoding="UTF-8" standalone="no"?>
<!-- Created with Inkscape (http://www.inkscape.org/) -->

<svg
   width="210mm"
   height="297mm"
   viewBox="0 0 210 297"
   version="1.1"
   id="svg830"
   inkscape:version="1.1 (c68e22c387, 2021-05-23)"
   sodipodi:docname="pingouin_owaw.svg"
   xmlns:inkscape="http://www.inkscape.org/namespaces/inkscape"
   xmlns:sodipodi="http://sodipodi.sourceforge.net/DTD/sodipodi-0.dtd"
   xmlns:xlink="http://www.w3.org/1999/xlink"
   xmlns="http://www.w3.org/2000/svg"
   xmlns:svg="http://www.w3.org/2000/svg">
  <sodipodi:namedview
     id="namedview832"
     pagecolor="#505050"
     bordercolor="#eeeeee"
     borderopacity="1"
     inkscape:pageshadow="0"
     inkscape:pageopacity="0"
     inkscape:pagecheckerboard="0"
     inkscape:document-units="mm"
     showgrid="false"
     inkscape:zoom="2.0762433"
     inkscape:cx="451.53668"
     inkscape:cy="387.47868"
     inkscape:window-width="1920"
     inkscape:window-height="1013"
     inkscape:window-x="-9"
     inkscape:window-y="29"
     inkscape:window-maximized="1"
     inkscape:current-layer="g17480" />
  <defs
     id="defs827">
    <linearGradient
       inkscape:collect="always"
       id="linearGradient20390">
      <stop
         style="stop-color:#ffffff;stop-opacity:1;"
         offset="0"
         id="stop20386" />
      <stop
         style="stop-color:#ffffff;stop-opacity:0;"
         offset="1"
         id="stop20388" />
    </linearGradient>
    <linearGradient
       inkscape:collect="always"
       id="linearGradient19802">
      <stop
         style="stop-color:#ff9a00;stop-opacity:1;"
         offset="0"
         id="stop19798" />
      <stop
         style="stop-color:#ffff00;stop-opacity:1"
         offset="1"
         id="stop19800" />
    </linearGradient>
    <linearGradient
       inkscape:collect="always"
       id="linearGradient18557">
      <stop
         style="stop-color:#000000;stop-opacity:1;"
         offset="0"
         id="stop18553" />
      <stop
         style="stop-color:#000000;stop-opacity:0;"
         offset="1"
         id="stop18555" />
    </linearGradient>
    <linearGradient
       id="linearGradient18533"
       inkscape:swatch="solid">
      <stop
         style="stop-color:#000000;stop-opacity:1;"
         offset="0"
         id="stop18531" />
    </linearGradient>
    <linearGradient
       inkscape:collect="always"
       id="linearGradient17677">
      <stop
         style="stop-color:#ffffff;stop-opacity:1;"
         offset="0"
         id="stop17673" />
      <stop
         style="stop-color:#ffffff;stop-opacity:0;"
         offset="1"
         id="stop17675" />
    </linearGradient>
    <linearGradient
       inkscape:collect="always"
       id="linearGradient12567">
      <stop
         style="stop-color:#ffff59;stop-opacity:1"
         offset="0"
         id="stop12563" />
      <stop
         style="stop-color:#ff5d00;stop-opacity:1"
         offset="1"
         id="stop12565" />
    </linearGradient>
    <linearGradient
       id="linearGradient10506"
       inkscape:swatch="gradient">
      <stop
         style="stop-color:#ffffff;stop-opacity:1;"
         offset="0"
         id="stop10502" />
      <stop
         style="stop-color:#e6e6e6;stop-opacity:0;"
         offset="1"
         id="stop10504" />
    </linearGradient>
    <linearGradient
       inkscape:collect="always"
       id="linearGradient8998">
      <stop
         style="stop-color:#ffffff;stop-opacity:1;"
         offset="0"
         id="stop8994" />
      <stop
         style="stop-color:#ffffff;stop-opacity:0.22222224"
         offset="1"
         id="stop8996" />
    </linearGradient>
    <linearGradient
       inkscape:collect="always"
       id="linearGradient8045">
      <stop
         style="stop-color:#ffffff;stop-opacity:1"
         offset="0"
         id="stop8041" />
      <stop
         style="stop-color:#ffffff;stop-opacity:0"
         offset="1"
         id="stop8043" />
    </linearGradient>
    <linearGradient
       id="linearGradient7845"
       inkscape:swatch="solid">
      <stop
         style="stop-color:#ffffff;stop-opacity:0.96078432;"
         offset="0"
         id="stop7843" />
    </linearGradient>
    <linearGradient
       inkscape:collect="always"
       xlink:href="#linearGradient8045"
       id="linearGradient8049"
       x1="106.20574"
       y1="136.36185"
       x2="104.38985"
       y2="215.27307"
       gradientUnits="userSpaceOnUse" />
    <linearGradient
       inkscape:collect="always"
       xlink:href="#linearGradient8998"
       id="linearGradient9000"
       x1="112.85123"
       y1="118.88295"
       x2="113.25685"
       y2="151.68271"
       gradientUnits="userSpaceOnUse" />
    <filter
       inkscape:collect="always"
       style="color-interpolation-filters:sRGB"
       id="filter9960"
       x="-0.048964801"
       y="-0.048964801"
       width="1.0979296"
       height="1.0979296">
      <feGaussianBlur
         inkscape:collect="always"
         stdDeviation="0.05398029"
         id="feGaussianBlur9962" />
    </filter>
    <linearGradient
       inkscape:collect="always"
       xlink:href="#linearGradient10506"
       id="linearGradient10812"
       gradientUnits="userSpaceOnUse"
       x1="95.702705"
       y1="127.52926"
       x2="95.638985"
       y2="138.10625"
       gradientTransform="matrix(1,0,0,1.337259,4.4664321,-47.872908)" />
    <linearGradient
       inkscape:collect="always"
       xlink:href="#linearGradient10506"
       id="linearGradient11004"
       gradientUnits="userSpaceOnUse"
       x1="95.702705"
       y1="127.52926"
       x2="95.638985"
       y2="138.10625"
       gradientTransform="translate(-223.3749,1.0583333)" />
    <linearGradient
       inkscape:collect="always"
       xlink:href="#linearGradient12567"
       id="linearGradient12569"
       x1="424.85837"
       y1="347.49615"
       x2="424.62183"
       y2="423.74377"
       gradientUnits="userSpaceOnUse" />
    <linearGradient
       inkscape:collect="always"
       xlink:href="#linearGradient12567"
       id="linearGradient17564"
       gradientUnits="userSpaceOnUse"
       x1="424.85837"
       y1="347.49615"
       x2="424.62183"
       y2="423.74377"
       gradientTransform="matrix(0,0,0,0.42815738,100.07255,-52.659817)" />
    <linearGradient
       inkscape:collect="always"
       xlink:href="#linearGradient17677"
       id="linearGradient17679"
       x1="112.07182"
       y1="96.123222"
       x2="112.04449"
       y2="127.98063"
       gradientUnits="userSpaceOnUse"
       gradientTransform="translate(-0.04505461,0.99120146)" />
    <linearGradient
       inkscape:collect="always"
       xlink:href="#linearGradient18557"
       id="linearGradient18559"
       x1="153.81245"
       y1="110.48501"
       x2="187.83725"
       y2="80.66552"
       gradientUnits="userSpaceOnUse"
       gradientTransform="translate(-2.1166667)" />
    <linearGradient
       inkscape:collect="always"
       xlink:href="#linearGradient18557"
       id="linearGradient19185"
       gradientUnits="userSpaceOnUse"
       x1="153.81245"
       y1="110.48501"
       x2="187.83725"
       y2="80.66552"
       gradientTransform="matrix(-1,0,0,1,222.29079,0)" />
    <linearGradient
       inkscape:collect="always"
       xlink:href="#linearGradient19802"
       id="linearGradient19804"
       x1="132.53102"
       y1="161.36765"
       x2="132.36205"
       y2="182.0119"
       gradientUnits="userSpaceOnUse"
       gradientTransform="translate(-2.3388107)" />
    <linearGradient
       inkscape:collect="always"
       xlink:href="#linearGradient20390"
       id="linearGradient20392"
       x1="132.40358"
       y1="162.51454"
       x2="132.74434"
       y2="186.72694"
       gradientUnits="userSpaceOnUse"
       gradientTransform="matrix(0.91346418,0,0,0.86538903,9.8013893,21.645839)" />
    <linearGradient
       inkscape:collect="always"
       xlink:href="#linearGradient19802"
       id="linearGradient21068"
       gradientUnits="userSpaceOnUse"
       x1="132.53102"
       y1="161.36765"
       x2="132.36205"
       y2="182.0119"
       gradientTransform="translate(-224.17973)" />
    <linearGradient
       inkscape:collect="always"
       xlink:href="#linearGradient20390"
       id="linearGradient21070"
       gradientUnits="userSpaceOnUse"
       gradientTransform="matrix(0.91346418,0,0,0.86538903,-212.03953,21.645839)"
       x1="132.40358"
       y1="162.51454"
       x2="132.74434"
       y2="186.72694" />
  </defs>
  <g
     inkscape:label="Calque 1"
     inkscape:groupmode="layer"
     id="layer1">
    <g
       id="g17480">
      <g
         id="g19189">
        <path
           style="fill:url(#linearGradient18559);fill-opacity:1;stroke:#000000;stroke-width:0.34055px;stroke-linecap:butt;stroke-linejoin:miter;stroke-opacity:1"
           d="M 178.5908,87.344573 C 150.26168,145.08702 150.26168,145.08702 150.26168,145.08702 L 128.24635,111.63355 Z"
           id="path18011" />
        <path
           style="fill:url(#linearGradient19185);fill-opacity:1;stroke:#000000;stroke-width:0.34055px;stroke-linecap:butt;stroke-linejoin:miter;stroke-opacity:1"
           d="M 41.583643,87.344573 C 69.912601,145.08702 69.912601,145.08702 69.912601,145.08702 L 91.927808,111.63355 Z"
           id="path19183" />
      </g>
      <g
         id="g19231">
        <g
           id="g11083"
           transform="translate(-1.4127027,-46.865853)">
          <g
             id="g8583"
             transform="translate(7.2087378,4.1450243)">
            <g
               id="g1524"
               transform="translate(-1.2306085,-15.739936)">
              <path
                 id="path913"
                 style="fill:#000000;fill-opacity:1;stroke-width:0.359381"
                 d="m 107.50655,126.18267 a 46.220594,52.987796 6.0788913 0 0 -47.252778,49.51536 46.220594,52.987796 6.0788913 0 0 41.793518,56.20814 46.220594,52.987796 6.0788913 0 0 50.40901,-49.40647 46.220594,52.987796 6.0788913 0 0 -41.79351,-56.20814 46.220594,52.987796 6.0788913 0 0 -3.15624,-0.1089 z" />
              <path
                 id="path1334"
                 style="fill:#e6e6e6;fill-opacity:1;stroke-width:0.34522"
                 d="m 107.50639,154.58399 a 46.122766,48.998057 14.245984 0 0 -46.430763,40.14922 46.122766,48.998057 14.245984 0 0 40.971663,37.18135 46.122766,48.998057 14.245984 0 0 49.60111,-39.98995 46.122766,48.998057 14.245984 0 0 -40.98561,-37.24048 46.122766,48.998057 14.245984 0 0 -3.1564,-0.10014 z" />
            </g>
            <path
               id="path1552"
               style="fill:url(#linearGradient8049);fill-opacity:1;stroke:none;stroke-width:0.963225"
               d="m 106.20574,136.36184 a 29.857328,39.657747 3.6129353 0 0 -30.964314,39.62361 29.857328,39.657747 3.6129353 0 0 28.801674,39.62359 29.857328,39.657747 3.6129353 0 0 30.96433,-39.62359 29.857328,39.657747 3.6129353 0 0 -28.80169,-39.62361 z" />
          </g>
          <path
             style="fill:url(#linearGradient9000);fill-opacity:1;stroke:none"
             id="path8607"
             sodipodi:type="arc"
             sodipodi:cx="113.77492"
             sodipodi:cy="134.74217"
             sodipodi:rx="27.956451"
             sodipodi:ry="18.410681"
             sodipodi:start="0"
             sodipodi:end="6.2551151"
             sodipodi:open="true"
             sodipodi:arc-type="arc"
             d="M 141.73137,134.74217 A 27.956451,18.410681 0 0 1 113.9711,153.1524 27.956451,18.410681 0 0 1 85.82122,135.00056 27.956451,18.410681 0 0 1 113.1864,116.33557 27.956451,18.410681 0 0 1 141.72036,134.22545" />
          <g
             id="g11064">
            <g
               id="g11052">
              <path
                 style="fill:#e6e6e6;fill-opacity:1;stroke:none"
                 id="path9182"
                 sodipodi:type="arc"
                 sodipodi:cx="100.16223"
                 sodipodi:cy="133.75984"
                 sodipodi:rx="13.229167"
                 sodipodi:ry="12.383575"
                 sodipodi:start="0"
                 sodipodi:end="6.2551204"
                 sodipodi:open="true"
                 sodipodi:arc-type="arc"
                 d="m 113.3914,133.75984 a 13.229167,12.383575 0 0 1 -13.13635,12.38327 13.229167,12.383575 0 0 1 -13.320683,-12.2095 13.229167,12.383575 0 0 1 12.949428,-12.5546 13.229167,12.383575 0 0 1 13.502395,12.03333" />
              <path
                 style="fill:#000000;fill-opacity:1;stroke:none"
                 id="path9308"
                 sodipodi:type="arc"
                 sodipodi:cx="106.1131"
                 sodipodi:cy="139.78821"
                 sodipodi:rx="3.96875"
                 sodipodi:ry="3.96875"
                 sodipodi:start="0"
                 sodipodi:end="6.2551204"
                 sodipodi:open="true"
                 sodipodi:arc-type="arc"
                 d="m 110.08185,139.78821 a 3.96875,3.96875 0 0 1 -3.94091,3.96865 3.96875,3.96875 0 0 1 -3.9962,-3.91296 3.96875,3.96875 0 0 1 3.88483,-4.02356 3.96875,3.96875 0 0 1 4.05072,3.8565" />
              <path
                 style="fill:#ffffff;fill-opacity:1;stroke:none;filter:url(#filter9960)"
                 id="path9556"
                 sodipodi:type="arc"
                 sodipodi:cx="107.80001"
                 sodipodi:cy="140.83794"
                 sodipodi:rx="1.3229166"
                 sodipodi:ry="1.3229166"
                 sodipodi:start="0"
                 sodipodi:end="6.2551204"
                 sodipodi:open="true"
                 sodipodi:arc-type="arc"
                 d="m 109.12293,140.83794 a 1.3229166,1.3229166 0 0 1 -1.31364,1.32288 1.3229166,1.3229166 0 0 1 -1.33207,-1.30432 1.3229166,1.3229166 0 0 1 1.29495,-1.34119 1.3229166,1.3229166 0 0 1 1.35024,1.2855" />
              <path
                 style="fill:url(#linearGradient10812);fill-opacity:1;stroke:none"
                 id="path9986"
                 sodipodi:type="arc"
                 sodipodi:cx="100.83816"
                 sodipodi:cy="129.82402"
                 sodipodi:rx="7.6141624"
                 sodipodi:ry="7.2851062"
                 sodipodi:start="0"
                 sodipodi:end="6.2551204"
                 sodipodi:open="true"
                 sodipodi:arc-type="arc"
                 d="m 108.45232,129.82402 a 7.6141624,7.2851062 0 0 1 -7.56074,7.28493 7.6141624,7.2851062 0 0 1 -7.666835,-7.18271 7.6141624,7.2851062 0 0 1 7.453155,-7.38571 7.6141624,7.2851062 0 0 1 7.77142,7.07906" />
            </g>
            <g
               id="g11040">
              <path
                 style="fill:#e6e6e6;fill-opacity:1;stroke:none"
                 id="path10994"
                 sodipodi:type="arc"
                 sodipodi:cx="-127.6791"
                 sodipodi:cy="136.883"
                 sodipodi:rx="13.229167"
                 sodipodi:ry="9.260417"
                 sodipodi:start="0"
                 sodipodi:end="6.2551204"
                 sodipodi:open="true"
                 sodipodi:arc-type="arc"
                 transform="scale(-1,1)"
                 d="m -114.44993,136.883 a 13.229167,9.260417 0 0 1 -13.13635,9.26018 13.229167,9.260417 0 0 1 -13.32068,-9.13024 13.229167,9.260417 0 0 1 12.94942,-9.38831 13.229167,9.260417 0 0 1 13.5024,8.99851" />
              <path
                 style="fill:#000000;fill-opacity:1;stroke:none"
                 id="path10996"
                 sodipodi:type="arc"
                 sodipodi:cx="-121.72823"
                 sodipodi:cy="139.78821"
                 sodipodi:rx="3.96875"
                 sodipodi:ry="3.96875"
                 sodipodi:start="0"
                 sodipodi:end="6.2551204"
                 sodipodi:open="true"
                 sodipodi:arc-type="arc"
                 transform="scale(-1,1)"
                 d="m -117.75948,139.78821 a 3.96875,3.96875 0 0 1 -3.94091,3.96865 3.96875,3.96875 0 0 1 -3.9962,-3.91296 3.96875,3.96875 0 0 1 3.88483,-4.02356 3.96875,3.96875 0 0 1 4.05071,3.8565" />
              <path
                 style="fill:#ffffff;fill-opacity:1;stroke:none;filter:url(#filter9960)"
                 id="path10998"
                 sodipodi:type="arc"
                 sodipodi:cx="103.33358"
                 sodipodi:cy="139.7796"
                 sodipodi:rx="1.3229166"
                 sodipodi:ry="1.3229166"
                 sodipodi:start="0"
                 sodipodi:end="6.2551204"
                 sodipodi:open="true"
                 sodipodi:arc-type="arc"
                 transform="matrix(-1,0,0,1,223.3749,1.0583333)"
                 d="m 104.6565,139.7796 a 1.3229166,1.3229166 0 0 1 -1.31364,1.32289 1.3229166,1.3229166 0 0 1 -1.33207,-1.30432 1.3229166,1.3229166 0 0 1 1.29495,-1.34119 1.3229166,1.3229166 0 0 1 1.35024,1.2855" />
              <path
                 style="fill:url(#linearGradient11004);fill-opacity:1;stroke:none"
                 id="path11000"
                 sodipodi:type="arc"
                 sodipodi:cx="-127.00317"
                 sodipodi:cy="133.9398"
                 sodipodi:rx="7.6141624"
                 sodipodi:ry="5.4477901"
                 sodipodi:start="0"
                 sodipodi:end="6.2551204"
                 sodipodi:open="true"
                 sodipodi:arc-type="arc"
                 transform="scale(-1,1)"
                 d="m -119.389,133.9398 a 7.6141624,5.4477901 0 0 1 -7.56074,5.44766 7.6141624,5.4477901 0 0 1 -7.66684,-5.37121 7.6141624,5.4477901 0 0 1 7.45316,-5.52303 7.6141624,5.4477901 0 0 1 7.77142,5.29371" />
            </g>
          </g>
        </g>
        <path
           id="path17566"
           style="fill:url(#linearGradient17679);fill-opacity:1;stroke-width:0.330848"
           inkscape:transform-center-x="0.088873396"
           inkscape:transform-center-y="-8.4748594"
           d="m 122.70216,99.135717 -0.0756,0.007 -4.86407,13.658363 -5.79735,16.27909 0.0343,-0.10834 -5.97687,-16.46404 -4.83917,-13.330073 0.0412,0.10198 10.80216,-2.16527 z"
           sodipodi:nodetypes="cccccccccc" />
      </g>
      <path
         id="path17562"
         style="fill:url(#linearGradient17564);stroke-width:0"
         inkscape:transform-center-x="-2.5032752e-06"
         inkscape:transform-center-y="-8.6557019"
         d="m 100.07255,98.188173 v 0.0065 13.949017 16.62552 -0.11064 -16.81441 -13.613745 0.10415 -2.211348 z"
         sodipodi:nodetypes="cccccccccc" />
      <g
         id="g21187">
        <g
           id="g21480">
          <path
             style="opacity:1;fill:url(#linearGradient19804);fill-opacity:1;stroke:none"
             id="path19255"
             sodipodi:type="arc"
             sodipodi:cx="130.23515"
             sodipodi:cy="172.19951"
             sodipodi:rx="18.520834"
             sodipodi:ry="7.9375"
             sodipodi:start="0"
             sodipodi:end="6.2551204"
             sodipodi:open="true"
             sodipodi:arc-type="arc"
             d="m 148.75599,172.19951 a 18.520834,7.9375 0 0 1 -18.39089,7.9373 18.520834,7.9375 0 0 1 -18.64896,-7.82592 18.520834,7.9375 0 0 1 18.1292,-8.04712 18.520834,7.9375 0 0 1 18.90335,7.713" />
          <path
             style="opacity:0.798046;fill:url(#linearGradient20392);fill-opacity:1;stroke:none"
             id="path20364"
             sodipodi:type="arc"
             sodipodi:cx="130.55373"
             sodipodi:cy="170.22429"
             sodipodi:rx="14.124372"
             sodipodi:ry="5.3251095"
             sodipodi:start="0"
             sodipodi:end="6.2551204"
             sodipodi:open="true"
             sodipodi:arc-type="arc"
             d="m 144.6781,170.22429 a 14.124372,5.3251095 0 0 1 -14.02527,5.32498 14.124372,5.3251095 0 0 1 -14.22208,-5.25026 14.124372,5.3251095 0 0 1 13.8257,-5.39865 14.124372,5.3251095 0 0 1 14.41609,5.1745" />
          <path
             style="opacity:1;fill:url(#linearGradient21068);fill-opacity:1;stroke:none"
             id="path21062"
             sodipodi:type="arc"
             sodipodi:cx="-91.605759"
             sodipodi:cy="172.19951"
             sodipodi:rx="18.520834"
             sodipodi:ry="7.9375"
             sodipodi:start="0"
             sodipodi:end="6.2551204"
             sodipodi:open="true"
             sodipodi:arc-type="arc"
             d="m -73.084925,172.19951 a 18.520834,7.9375 0 0 1 -18.390888,7.9373 18.520834,7.9375 0 0 1 -18.648957,-7.82592 18.520834,7.9375 0 0 1 18.129201,-8.04712 18.520834,7.9375 0 0 1 18.903351,7.713"
             transform="scale(-1,1)" />
          <path
             style="opacity:0.798046;fill:url(#linearGradient21070);fill-opacity:1;stroke:none"
             id="path21064"
             sodipodi:type="arc"
             sodipodi:cx="-91.287186"
             sodipodi:cy="170.22429"
             sodipodi:rx="14.124372"
             sodipodi:ry="5.3251095"
             sodipodi:start="0"
             sodipodi:end="6.2551204"
             sodipodi:open="true"
             sodipodi:arc-type="arc"
             d="m -77.162814,170.22429 a 14.124372,5.3251095 0 0 1 -14.025273,5.32498 14.124372,5.3251095 0 0 1 -14.222083,-5.25026 14.124372,5.3251095 0 0 1 13.825707,-5.39865 14.124372,5.3251095 0 0 1 14.416087,5.1745"
             transform="scale(-1,1)" />
        </g>
      </g>
      <path
         id="path11514"
         style="fill:url(#linearGradient12569)"
         inkscape:transform-center-x="0.098339361"
         inkscape:transform-center-y="-9.0835024"
         d="m 465.74503,352.31902 -0.28964,0.0152 -18.62949,32.57919 -22.20406,38.8304 0.13167,-0.25842 -22.8916,-39.27157 -18.53413,-31.79612 0.15796,0.24325 41.37261,-5.1648 z"
         sodipodi:nodetypes="cccccccccc"
         transform="matrix(0.28892616,0,0,0.44931927,-10.680876,-60.013491)" />
      <rect
         style="opacity:0.798046;fill:#ffffff;fill-opacity:0;stroke:none;stroke-width:0.264583"
         id="rect21584"
         width="32.113289"
         height="17.203548"
         x="165.53636"
         y="67.030121" />
      <rect
         style="opacity:0.798046;fill:#ffffff;fill-opacity:0;stroke:none;stroke-width:0.264583"
         id="rect21586"
         width="0.63716847"
         height="0.38230106"
         x="163.49742"
         y="65.500916" />
      <rect
         style="opacity:0.798046;fill:#ffffff;fill-opacity:0;stroke:none;stroke-width:0.264583"
         id="rect21588"
         width="35.1717"
         height="31.093821"
         x="157.89034"
         y="68.049583" />
      <path
         style="opacity:0.798046;fill:#ffffff;fill-opacity:0;stroke:none"
         id="path21612"
         sodipodi:type="arc"
         sodipodi:cx="181.46558"
         sodipodi:cy="103.47615"
         sodipodi:rx="10.576996"
         sodipodi:ry="34.916828"
         sodipodi:start="0"
         sodipodi:end="6.2551204"
         sodipodi:open="true"
         sodipodi:arc-type="arc"
         d="m 192.04257,103.47615 a 10.576996,34.916828 0 0 1 -10.50278,34.91597 10.576996,34.916828 0 0 1 -10.65017,-34.42602 10.576996,34.916828 0 0 1 10.35334,-35.399043 10.576996,34.916828 0 0 1 10.79545,33.929283" />
      <path
         style="opacity:0.798046;fill:#ffffff;fill-opacity:0;stroke:none"
         id="path21614"
         sodipodi:type="arc"
         sodipodi:cx="146.48502"
         sodipodi:cy="79.900917"
         sodipodi:rx="12.042482"
         sodipodi:ry="11.978766"
         sodipodi:start="0"
         sodipodi:end="6.2551204"
         sodipodi:open="true"
         sodipodi:arc-type="arc"
         d="m 158.5275,79.900917 a 12.042482,11.978766 0 0 1 -11.95799,11.978472 12.042482,11.978766 0 0 1 -12.12579,-11.810386 12.042482,11.978766 0 0 1 11.78784,-12.144199 12.042482,11.978766 0 0 1 12.2912,11.639974" />
      <path
         style="opacity:0.798046;fill:#ffffff;fill-opacity:0;stroke:none"
         id="path21638"
         sodipodi:type="arc"
         sodipodi:cx="72.573486"
         sodipodi:cy="72.382332"
         sodipodi:rx="11.023014"
         sodipodi:ry="5.4796481"
         sodipodi:start="0"
         sodipodi:end="6.2551204"
         sodipodi:open="true"
         sodipodi:arc-type="arc"
         d="M 83.5965,72.382332 A 11.023014,5.4796481 0 0 1 72.650826,77.861845 11.023014,5.4796481 0 0 1 61.551558,72.459222 11.023014,5.4796481 0 0 1 72.341484,66.903898 11.023014,5.4796481 0 0 1 83.59216,72.228566" />
    </g>
  </g>
</svg>
